<svg xmlns="http://www.w3.org/2000/svg" width="210.682" height="59.874" viewBox="0 0 210.682 59.874">
  <g id="Group_3258" transform="translate(-539.759 -480.38)">
    <path id="Path_4884" d="M539.759,539.082V481.55a1.169,1.169,0,0,1,1.717-1.032l51.115,27.155a1.169,1.169,0,0,1,.053,2.035l-14.72,8.832a1.169,1.169,0,0,1-1.182.013L567.019,513a1.169,1.169,0,0,1-.07-1.987l2.257-1.51a1.169,1.169,0,0,0-.108-2.007l-15.672-8.2a1.169,1.169,0,0,0-1.711,1.036v7.619a1.169,1.169,0,0,0,.615,1.029L572.066,519.6a1.169,1.169,0,0,1,.026,2.044l-9.572,5.47a1.168,1.168,0,0,1-1.121.021l-7.975-4.169A1.169,1.169,0,0,0,551.712,524l0,9.583a1.169,1.169,0,0,1-.589,1.015l-9.619,5.5A1.169,1.169,0,0,1,539.759,539.082Z" fill="#fff656"/>
    <g id="Group_3257" transform="translate(601.511 487.695)">
      <path id="Path_4885" d="M786.88,521.173h17.448c.209,0,.379.109.379.244v3.209c0,.135-.17.244-.379.244H786.88c-.209,0-.379-.109-.379-.244v-3.209C786.5,521.282,786.671,521.173,786.88,521.173Zm12.681-11.239v3.5a.154.154,0,0,1-.154.154h-1.812a2.943,2.943,0,0,0-2.668,1.03,5.4,5.4,0,0,0-.655,2.9v26.387a.154.154,0,0,1-.154.154h-4.092a.154.154,0,0,1-.154-.154V517.522a9.673,9.673,0,0,1,.936-4.564,5.823,5.823,0,0,1,2.5-2.551,7.7,7.7,0,0,1,3.534-.8q.655,0,1.357.047.631.042,1.224.122A.155.155,0,0,1,799.561,509.934Zm8.515,34.129h-3.689a.332.332,0,0,1-.332-.332V509.943a.332.332,0,0,1,.332-.332h3.689a.332.332,0,0,1,.332.332v33.787A.332.332,0,0,1,808.076,544.062Z" transform="translate(-786.501 -509.611)" fill="#fff"/>
      <path id="Path_4886" d="M895.262,516.725a2.9,2.9,0,0,1-2.036-4.962,2.9,2.9,0,0,1,4.1,4.1A2.762,2.762,0,0,1,895.262,516.725ZM893.109,544.7V522.5a.342.342,0,0,1,.342-.343h3.715a.343.343,0,0,1,.343.343v22.2a.343.343,0,0,1-.343.342h-3.715A.342.342,0,0,1,893.109,544.7Z" transform="translate(-865.867 -510.593)" fill="#fff"/>
      <path id="Path_4887" d="M927.522,563.07a13.385,13.385,0,0,1,1.427-6.319,10.747,10.747,0,0,1,3.956-4.26,12.114,12.114,0,0,1,13.013.749,9.2,9.2,0,0,1,3.36,5.737.3.3,0,0,1-.3.348h-3.819a.3.3,0,0,1-.288-.22,5.43,5.43,0,0,0-2.14-3.1,7.122,7.122,0,0,0-7.489-.117,6.765,6.765,0,0,0-2.481,2.832,9.731,9.731,0,0,0-.889,4.306,10.031,10.031,0,0,0,.843,4.283,6.593,6.593,0,0,0,2.387,2.809,6.449,6.449,0,0,0,3.6,1.006,6.877,6.877,0,0,0,4.026-1.17,5.554,5.554,0,0,0,2.184-2.97.3.3,0,0,1,.285-.213h3.818a.3.3,0,0,1,.292.364,9.229,9.229,0,0,1-1.828,3.966,10.186,10.186,0,0,1-3.745,2.9,11.814,11.814,0,0,1-5.032,1.053,11.228,11.228,0,0,1-5.875-1.5,10.338,10.338,0,0,1-3.908-4.19A13.424,13.424,0,0,1,927.522,563.07Z" transform="translate(-892.229 -540.601)" fill="#fff"/>
      <path id="Path_4888" d="M1033.176,544.062h-3.788a.306.306,0,0,1-.306-.306v-33.84a.306.306,0,0,1,.306-.306h3.788a.306.306,0,0,1,.306.306v21.252a.306.306,0,0,0,.528.21l9.539-10.11a.305.305,0,0,1,.222-.1h4.675a.306.306,0,0,1,.221.518l-8.091,8.437a.306.306,0,0,0-.038.375l8.281,13.09a.306.306,0,0,1-.259.469h-4.331a.306.306,0,0,1-.259-.142l-6.394-10.106a.306.306,0,0,0-.48-.047l-3.53,3.7a.306.306,0,0,0-.085.211v6.078A.306.306,0,0,1,1033.176,544.062Z" transform="translate(-968.371 -509.611)" fill="#fff"/>
      <path id="Path_4889" d="M1112.48,567.844h3.557a.328.328,0,0,1,.328.3,3.256,3.256,0,0,0,1.254,2.434,5.333,5.333,0,0,0,3.417,1.006,6.088,6.088,0,0,0,3.6-.913,2.879,2.879,0,0,0,1.264-2.457,2.686,2.686,0,0,0-.679-1.872,5.058,5.058,0,0,0-2.457-1.217l-4.026-.936a9.119,9.119,0,0,1-4.517-2.294,5.653,5.653,0,0,1-1.475-4.072,6.129,6.129,0,0,1,1.1-3.651,7.1,7.1,0,0,1,3.043-2.387,11.139,11.139,0,0,1,4.47-.843,10.008,10.008,0,0,1,4.377.889,7.071,7.071,0,0,1,2.9,2.481,6.854,6.854,0,0,1,1.086,3.437.333.333,0,0,1-.33.355h-3.556a.329.329,0,0,1-.328-.3,3.5,3.5,0,0,0-1.154-2.462,4.607,4.607,0,0,0-3.136-.983,5.021,5.021,0,0,0-3.183.889,2.936,2.936,0,0,0-1.123,2.434q0,2.294,3.37,3.136l4.026.983a8.651,8.651,0,0,1,4.353,2.13,5.459,5.459,0,0,1,1.451,4,6.252,6.252,0,0,1-1.17,3.768,7.456,7.456,0,0,1-3.206,2.481,12.206,12.206,0,0,1-4.8.866,9.777,9.777,0,0,1-6.413-1.966,6.383,6.383,0,0,1-2.38-4.893A.333.333,0,0,1,1112.48,567.844Z" transform="translate(-1030.65 -540.601)" fill="#fff"/>
      <path id="Path_4890" d="M1202.385,544.347h-3.327a.339.339,0,0,1-.339-.339V510.235a.339.339,0,0,1,.339-.339h3.723a.339.339,0,0,1,.339.339v13.924a.339.339,0,0,0,.619.189,7.612,7.612,0,0,1,2.7-2.375,10.5,10.5,0,0,1,5.009-1.17,9.859,9.859,0,0,1,5.617,1.568,10.172,10.172,0,0,1,3.6,4.33,15.033,15.033,0,0,1,1.264,6.319,13.929,13.929,0,0,1-1.311,6.132,10.041,10.041,0,0,1-3.721,4.236,10.524,10.524,0,0,1-5.734,1.521,9.758,9.758,0,0,1-4.845-1.217,7.816,7.816,0,0,1-2.767-2.572.338.338,0,0,0-.619.158l-.217,2.757A.338.338,0,0,1,1202.385,544.347Zm.781-11.515a9.719,9.719,0,0,0,.866,4.213,6.711,6.711,0,0,0,2.481,2.855,7.026,7.026,0,0,0,3.862,1.03,6.911,6.911,0,0,0,3.838-1.03,6.772,6.772,0,0,0,2.457-2.855,9.726,9.726,0,0,0,.866-4.213,9.459,9.459,0,0,0-.866-4.142,6.971,6.971,0,0,0-2.457-2.855,6.8,6.8,0,0,0-3.838-1.053,7.032,7.032,0,0,0-3.862,1.03,6.747,6.747,0,0,0-2.481,2.832A9.565,9.565,0,0,0,1203.166,532.832Z" transform="translate(-1095.554 -509.825)" fill="#fff"/>
      <path id="Path_4891" d="M1297.034,556.317l7.91,21.889a.338.338,0,0,1-.044.313l-2.244,3.095a.338.338,0,0,1-.589-.078l-9.572-24.984a.338.338,0,0,1,.316-.459h3.905A.339.339,0,0,1,1297.034,556.317Zm-4.106,32.653v-3a.338.338,0,0,1,.338-.338h2.611a8.536,8.536,0,0,0,1.966-.211,3.7,3.7,0,0,0,1.639-.889,5.181,5.181,0,0,0,1.264-2.13l9.562-26.085a.338.338,0,0,1,.317-.222h3.812a.338.338,0,0,1,.315.46l-10.636,27.579a9.467,9.467,0,0,1-2.949,4.259,7.219,7.219,0,0,1-4.4,1.311,16.34,16.34,0,0,1-2.013-.117,14.052,14.052,0,0,1-1.569-.287A.338.338,0,0,1,1292.928,588.971Z" transform="translate(-1165.844 -544.461)" fill="#fff"/>
    </g>
  </g>
</svg>
