<svg width="191" height="214" viewBox="0 0 191 214" fill="none" xmlns="http://www.w3.org/2000/svg">
<path d="M5.42769e-08 209.015V4.16268C-0.000115939 3.44444 0.185684 2.73839 0.539246 2.11321C0.892807 1.48802 1.40213 0.964975 2.0177 0.594927C2.63327 0.224879 3.33414 0.0204199 4.05212 0.00145186C4.77011 -0.0175162 5.4808 0.149652 6.11505 0.486681L188.115 97.1747C188.766 97.5204 189.314 98.0329 189.702 98.6597C190.09 99.2864 190.304 100.005 190.324 100.742C190.343 101.479 190.166 102.208 189.811 102.854C189.456 103.5 188.936 104.04 188.304 104.42L135.892 135.867C135.258 136.247 134.534 136.452 133.795 136.46C133.055 136.468 132.327 136.279 131.685 135.912L97.064 116.129C96.4485 115.777 95.933 115.274 95.5664 114.667C95.1998 114.06 94.9942 113.37 94.9692 112.661C94.9441 111.953 95.1005 111.25 95.4233 110.618C95.7462 109.987 96.2249 109.449 96.814 109.055L104.851 103.677C105.451 103.275 105.936 102.724 106.259 102.079C106.582 101.433 106.731 100.714 106.693 99.9931C106.654 99.2721 106.428 98.5737 106.038 97.9663C105.647 97.3589 105.106 96.8635 104.466 96.5287L48.666 67.3287C48.0316 66.9966 47.3223 66.8339 46.6066 66.8561C45.891 66.8784 45.1932 67.0849 44.5806 67.4557C43.9681 67.8265 43.4616 68.3491 43.1101 68.9729C42.7586 69.5967 42.5739 70.3006 42.574 71.0166V98.1457C42.5741 98.8973 42.7776 99.6349 43.163 100.28C43.5484 100.925 44.1013 101.454 44.763 101.811L115.034 139.649C115.688 140.001 116.236 140.521 116.621 141.157C117.006 141.792 117.214 142.519 117.223 143.261C117.232 144.004 117.043 144.736 116.674 145.38C116.305 146.025 115.77 146.559 115.125 146.928L81.041 166.401C80.4352 166.747 79.7519 166.936 79.0541 166.949C78.3563 166.962 77.6664 166.799 77.048 166.476L48.648 151.631C48.0135 151.299 47.3041 151.136 46.5884 151.159C45.8727 151.181 45.1749 151.388 44.5625 151.759C43.9501 152.13 43.4437 152.653 43.0924 153.277C42.7411 153.901 42.5567 154.605 42.557 155.321L42.5681 189.442C42.5681 190.176 42.3738 190.897 42.005 191.532C41.6362 192.167 41.1059 192.693 40.468 193.057L6.22003 212.628C5.5873 212.988 4.87125 213.175 4.14331 213.172C3.41537 213.169 2.70099 212.975 2.07153 212.609C1.44207 212.243 0.919521 211.719 0.55603 211.088C0.19254 210.458 0.00080074 209.743 5.42769e-08 209.015Z" fill="#FFF656"/>
</svg>
